<svg id="Capa_1" enable-background="new 0 0 512 512" height="512" viewBox="0 0 512 512" width="512" xmlns="http://www.w3.org/2000/svg"><g><path d="m256 90.5c32.543 0 63.494 6.933 91.47 19.382 15.853-10.851 26.279-29.076 26.279-49.695 0-33.187-27-60.187-60.187-60.187h-115.124c-33.188 0-60.188 27-60.188 60.188 0 20.619 10.426 38.844 26.279 49.695 27.977-12.449 58.927-19.383 91.471-19.383zm-87.75-30.312c0-16.646 13.542-30.188 30.188-30.188h115.124c16.646 0 30.188 13.542 30.188 30.188s-13.542 30.188-30.188 30.188h-12.437v-15.126c0-8.284-6.716-15-15-15h-60.25c-8.284 0-15 6.716-15 15v15.125h-12.437c-16.646 0-30.188-13.542-30.188-30.187z"/><path d="m287.559 326.596 27.082-68.987-68.987 27.082z"/><path d="m256 120.5c-107.937 0-195.75 87.813-195.75 195.75s87.813 195.75 195.75 195.75 195.75-87.813 195.75-195.75-87.813-195.75-195.75-195.75zm99.133 116.062-48.02 122.32c-1.524 3.884-4.598 6.957-8.481 8.481l-122.32 48.02c-1.779.698-3.637 1.037-5.479 1.037-3.907 0-7.743-1.526-10.609-4.394-4.218-4.218-5.536-10.535-3.356-16.088l48.02-122.32c1.524-3.884 4.598-6.957 8.481-8.481l122.32-48.02c5.554-2.181 11.87-.861 16.088 3.356 4.218 4.218 5.535 10.536 3.356 16.089z"/><path d="m224.442 305.904-27.083 68.987 68.987-27.082z"/></g></svg>