<svg id="Capa_1" enable-background="new 0 0 512 512" height="512" viewBox="0 0 512 512" width="512" xmlns="http://www.w3.org/2000/svg"><g><path d="m391 0h-270c-33.137 0-60 26.863-60 60s26.863 60 60 60h7.5c12.407 0 22.5-10.093 22.5-22.5s-10.093-22.5-22.5-22.5c-8.284 0-15-6.716-15-15s6.716-15 15-15c28.949 0 52.5 23.551 52.5 52.5 0 8.048-1.825 15.676-5.076 22.5h160.152c-3.251-6.824-5.076-14.452-5.076-22.5 0-28.949 23.551-52.5 52.5-52.5 8.284 0 15 6.716 15 15s-6.716 15-15 15c-12.407 0-22.5 10.093-22.5 22.5s10.093 22.5 22.5 22.5h7.5c33.137 0 60-26.863 60-60s-26.863-60-60-60z"/><path d="m121 165c0 16.569 13.431 30 30 30h210c16.569 0 30-13.431 30-30v-15h-270z"/><path d="m376 482h-240c-8.284 0-15 6.716-15 15s6.716 15 15 15h240c8.284 0 15-6.716 15-15s-6.716-15-15-15z"/><path d="m151 225v227h210v-227zm82.5 189.5c0 8.284-6.716 15-15 15s-15-6.716-15-15v-152c0-8.284 6.716-15 15-15s15 6.716 15 15zm75 0c0 8.284-6.716 15-15 15s-15-6.716-15-15v-152c0-8.284 6.716-15 15-15s15 6.716 15 15z"/></g></svg>